
<svg width="32" height="37" viewBox="0 0 32 37" fill="none" xmlns="http://www.w3.org/2000/svg">
<path d="M13.7168 2.28619C13.7168 2.28619 14.2187 -0.160387 16.0587 0.00834273C17.8988 0.177072 18.4006 2.28619 18.4006 2.28619V3.88912C18.4006 3.88912 27.2664 5.28114 27.5173 15.0253C27.7683 24.7694 32.5357 25.7396 31.9502 28.0174C31.3647 30.2953 29.8592 29.7891 29.8592 29.7891L2.25826 30C2.25826 30 0 29.8735 0 27.8065C0 25.7396 4.93472 23.7148 4.6838 15.0253C4.76744 5.32332 13.7168 3.88912 13.7168 3.88912V2.28619Z" fill="white"/>
<path d="M11 32H21C21 32 20.3488 37.0464 15.8837 36.9997C11.4186 36.953 11 32 11 32Z" fill="white"/>
</svg>
